PathFileType	4	(x/y/z)	S09_PSF_T07
DataRate	CameraRate	NumFrames	NumMarkers	Units	OrigDataRate	OrigDataStartFrame	OrigNumFrames
240	240	9	51	mm	240	115	456
Frame#	Time	Sternum			R.Acromium			L.Acromium			Top.Head			R.ASIS			L.ASIS			R.PSIS			L.PSIS			R.Great.Tro			L.Great.Tro			R.Iliac.Crest			L.Iliac.Crest			V.Sacral			R.Thigh.Upper.Post			R.Thigh.Lower.Ant			R.Thigh.Lower.Post			R.Thigh.Upper.Ant			R.Knee.Lat			R.Knee.Med			R.Shank.Upper.Post			R.Shank.Lower.Ant			R.Shank.Lower.Post			R.Shank.Upper.Ant			R.Ankle.Lat			R.Ankle.Med			R.Heel.Upper			R.Heel.Med			R.Heel.Lat			R.Toe.Lat			R.Toe.Med			R.Toe.Tip			L.Thigh.Upper.Post			L.Thigh.Lower.Ant			L.Thigh.Lower.Post			L.Thigh.Upper.Ant			L.Knee.Lat			L.Knee.Med			L.Shank.Upper.Post			L.Shank.Lower.Ant			L.Shank.Lower.Post			L.Shank.Upper.Ant			L.Ankle.Lat			L.Ankle.Med			L.Heel.Upper			L.Heel.Med			L.Heel.Lat			L.Toe.Lat			L.Toe.Med			L.Toe.Tip			Cervical.Spine			Back			
		X1	Y1	Z1	X2	Y2	Z2	X3	Y3	Z3	X4	Y4	Z4	X5	Y5	Z5	X6	Y6	Z6	X7	Y7	Z7	X8	Y8	Z8	X9	Y9	Z9	X10	Y10	Z10	X11	Y11	Z11	X12	Y12	Z12	X13	Y13	Z13	X14	Y14	Z14	X15	Y15	Z15	X16	Y16	Z16	X17	Y17	Z17	X18	Y18	Z18	X19	Y19	Z19	X20	Y20	Z20	X21	Y21	Z21	X22	Y22	Z22	X23	Y23	Z23	X24	Y24	Z24	X25	Y25	Z25	X26	Y26	Z26	X27	Y27	Z27	X28	Y28	Z28	X29	Y29	Z29	X30	Y30	Z30	X31	Y31	Z31	X32	Y32	Z32	X33	Y33	Z33	X34	Y34	Z34	X35	Y35	Z35	X36	Y36	Z36	X37	Y37	Z37	X38	Y38	Z38	X39	Y39	Z39	X40	Y40	Z40	X41	Y41	Z41	X42	Y42	Z42	X43	Y43	Z43	X44	Y44	Z44	X45	Y45	Z45	X46	Y46	Z46	X47	Y47	Z47	X48	Y48	Z48	X49	Y49	Z49	X50	Y50	Z50	X51	Y51	Z51	

115	0.475	NaN	NaN	NaN	-1078.1	1427.9	508.84	-1062.2	1435.2	193.74	-1023.7	1736.8	351.47	-971.78	1020.6	457.26	-989.17	1020.4	212.27	-1204.7	1037.9	397.43	-1201.6	1047.8	308.03	-1041.1	932.7	535.99	-1071.3	933.18	151.12	-1061.6	1095.9	506.12	-1096.2	1117.9	186.22	-1220.6	1007.7	346.81	-949.43	697.14	526.21	-844.07	630.96	487.63	-919.34	609.98	504.12	-880.24	712.31	511.11	-843.03	549.28	487.41	-838	536.41	365.64	-884.66	366.55	496.36	-805.54	321.56	499.19	-870.79	292.38	490.73	-825.51	392.8	506.84	-800.08	111.55	488.46	-761.2	133.29	406.3	-846.99	77.274	425.54	-822.08	51.689	399.05	-841.87	47.034	460.71	-697.15	70.833	540.37	-635.89	95.291	448.52	-604.89	120.01	500.03	-1165.8	687.46	218.6	-1097.4	580.15	222.62	-1163.4	599.49	241.18	-1098.7	666.42	195.33	-1125.7	504.2	238.36	-1098.7	521.06	368.71	-1194.3	377.23	237.37	-1145.3	280.11	257.25	-1205.3	301.69	250.5	-1134.3	356.16	244.15	-1217.1	105.96	290.28	-1202.1	100.73	383.89	-1289.7	75.167	344.97	-1278.5	49.044	376.42	-1291.2	47.972	316.16	-1119.4	42.701	256.22	-1079.4	38.636	364.43	-1029.8	54.803	304.04	-1150.2	1481.7	359.69	-1198.4	1215.1	337.77
116	0.47917	NaN	NaN	NaN	-1072.9	1427.1	508.8	-1056.8	1434.3	193.74	-1018.3	1736	351.65	-966.15	1019.7	457.24	-984.14	1019.8	212.3	-1199	1037	397.85	-1196.3	1047.1	308.47	-1035.6	931.46	535.77	-1066.8	932.79	151.09	-1056.1	1094.9	506.22	-1091.3	1117.3	186.47	-1215.3	1007	347.23	-945.39	695.37	525.63	-840.39	628.7	487.13	-915.79	608.09	503.46	-876.14	710.16	510.62	-839.12	547.83	486.78	-834.43	534.67	364.55	-875.53	364.61	496.05	-795.16	321.93	498.59	-859.45	290.81	490.53	-817.13	392.53	506.09	-783.08	111.71	488.23	-745.52	134.43	405.97	-829.5	75.902	425.73	-803.93	51.006	399.14	-823.21	45.869	460.87	-678.75	74.127	539.59	-618.82	100.24	447.38	-588.28	126.01	498.63	-1162.7	687.74	219.03	-1094.9	580.01	222.52	-1160.7	599.7	241.42	-1095.8	666.31	195.4	-1123.6	504.14	238.26	-1096	520.74	368.48	-1192.8	377.47	237.35	-1144.3	280.07	257.13	-1204	302.05	250.39	-1132.9	356.07	244	-1216.8	106.12	290.37	-1201.8	100.88	383.95	-1289.6	75.266	345.05	-1278.4	49.087	376.5	-1291.1	48.083	316.23	-1119.4	42.676	256.23	-1079.4	38.527	364.4	-1029.6	54.535	304	-1144.7	1480.9	359.67	-1193.2	1214.4	337.82
117	0.48333	NaN	NaN	NaN	-1067.6	1426.2	508.78	-1051.5	1433.4	193.74	-1013	1735.1	351.83	-960.49	1018.8	457.23	-979.08	1019.2	212.32	-1193.3	1036.1	398.28	-1190.9	1046.4	308.91	-1030.1	930.16	535.55	-1062.3	932.37	151.05	-1050.7	1093.9	506.32	-1086.3	1116.6	186.74	-1209.9	1006.2	347.67	-941.36	693.56	525.11	-836.74	626.37	486.66	-912.27	606.16	502.85	-872.04	707.96	510.17	-835.22	546.37	486.21	-830.95	532.87	363.46	-866.47	362.81	495.78	-784.93	322.4	497.98	-848.25	289.42	490.35	-808.84	392.32	505.32	-766.41	112.13	487.94	-730.24	135.78	405.56	-812.36	74.835	425.9	-786.19	50.629	399.18	-804.91	45.035	461	-660.75	77.657	538.68	-602.26	105.36	446.08	-572.14	132.16	497.03	-1159.6	688	219.45	-1092.4	579.86	222.4	-1158	599.9	241.64	-1092.9	666.19	195.45	-1121.5	504.07	238.15	-1093.2	520.4	368.24	-1191.2	377.7	237.31	-1143.2	280.02	257.01	-1202.6	302.43	250.24	-1131.4	355.97	243.85	-1216.6	106.3	290.46	-1201.5	101.04	384.01	-1289.5	75.361	345.14	-1278.4	49.132	376.57	-1291	48.193	316.31	-1119.3	42.65	256.23	-1079.3	38.424	364.38	-1029.5	54.265	303.95	-1139.1	1480	359.66	-1187.9	1213.6	337.89
118	0.4875	NaN	NaN	NaN	-1062.4	1425.3	508.78	-1046.1	1432.4	193.74	-1007.6	1734.3	352.02	-954.8	1017.8	457.2	-973.99	1018.6	212.35	-1187.5	1035.1	398.72	-1185.5	1045.6	309.37	-1024.6	928.82	535.34	-1057.8	931.94	151.01	-1045.1	1092.8	506.43	-1081.3	1115.9	187.02	-1204.5	1005.4	348.12	-937.31	691.73	524.66	-833.08	623.99	486.23	-908.75	604.2	502.29	-867.92	705.71	509.76	-831.3	544.92	485.68	-827.55	531.02	362.38	-857.47	361.14	495.54	-774.87	322.96	497.34	-837.19	288.19	490.19	-800.63	392.19	504.55	-750.11	112.81	487.59	-715.37	137.31	405.07	-795.62	74.054	426.01	-768.9	50.533	399.16	-787.01	44.506	461.09	-643.19	81.373	537.63	-586.21	110.59	444.6	-556.48	138.38	495.25	-1156.4	688.25	219.88	-1089.8	579.69	222.28	-1155.3	600.08	241.84	-1089.9	666.05	195.5	-1119.3	503.98	238.05	-1090.4	520.02	367.98	-1189.6	377.92	237.27	-1142.1	279.96	256.89	-1201.2	302.82	250.06	-1129.9	355.86	243.69	-1216.4	106.48	290.54	-1201.2	101.22	384.05	-1289.5	75.454	345.22	-1278.3	49.18	376.64	-1291	48.304	316.38	-1119.3	42.624	256.23	-1079.2	38.326	364.35	-1029.4	53.993	303.91	-1133.6	1479.2	359.65	-1182.6	1212.7	337.98
119	0.49167	-906.86	1184.3	350.73	-1057.1	1424.4	508.78	-1040.7	1431.5	193.76	-1002.2	1733.4	352.2	-949.09	1016.8	457.18	-968.88	1018	212.37	-1181.6	1034	399.17	-1180	1044.8	309.84	-1019	927.44	535.14	-1053.2	931.48	150.97	-1039.6	1091.7	506.54	-1076.4	1115.2	187.3	-1199	1004.6	348.58	-933.21	689.89	524.26	-829.39	621.6	485.83	-905.2	602.23	501.78	-863.76	703.45	509.38	-827.35	543.49	485.2	-824.2	529.16	361.31	-848.57	359.61	495.33	-764.99	323.59	496.68	-826.31	287.12	490.03	-792.52	392.11	503.78	-734.22	113.69	487.17	-700.94	139	404.5	-779.3	73.534	426.07	-752.09	50.691	399.06	-769.55	44.252	461.11	-626.09	85.226	536.45	-570.72	115.89	442.98	-541.33	144.62	493.29	-1153.1	688.48	220.29	-1087.2	579.49	222.14	-1152.4	600.23	242.03	-1086.8	665.88	195.54	-1117	503.87	237.94	-1087.4	519.61	367.72	-1187.9	378.14	237.22	-1141	279.9	256.76	-1199.7	303.23	249.87	-1128.4	355.74	243.54	-1216.1	106.68	290.62	-1200.9	101.4	384.1	-1289.4	75.547	345.31	-1278.2	49.233	376.7	-1290.9	48.417	316.45	-1119.2	42.598	256.24	-1079.1	38.233	364.32	-1029.3	53.72	303.86	-1128	1478.3	359.66	-1177.2	1211.8	338.09
120	0.49583	-902.22	1183.3	350.69	-1051.8	1423.5	508.8	-1035.3	1430.4	193.78	-996.84	1732.5	352.39	-943.36	1015.8	457.14	-963.74	1017.3	212.39	-1175.7	1033	399.64	-1174.5	1044	310.32	-1013.3	926.04	534.96	-1048.6	930.99	150.93	-1034	1090.6	506.66	-1071.4	1114.5	187.59	-1193.5	1003.7	349.05	-929.06	688.06	523.91	-825.66	619.21	485.45	-901.59	600.28	501.31	-859.53	701.19	509.04	-823.35	542.1	484.76	-820.88	527.3	360.25	-839.76	358.2	495.13	-755.29	324.27	495.99	-815.62	286.2	489.87	-784.5	392.08	503.01	-718.78	114.74	486.68	-686.97	140.81	403.85	-763.46	73.246	426.06	-735.79	51.074	398.88	-752.59	44.24	461.06	-609.51	89.157	535.14	-555.81	121.2	441.22	-526.71	150.82	491.19	-1149.8	688.68	220.68	-1084.5	579.28	222	-1149.6	600.35	242.21	-1083.7	665.7	195.58	-1114.7	503.74	237.83	-1084.4	519.17	367.46	-1186.2	378.35	237.16	-1139.8	279.82	256.64	-1198.2	303.63	249.66	-1126.8	355.6	243.39	-1215.9	106.88	290.69	-1200.6	101.6	384.13	-1289.3	75.642	345.39	-1278.2	49.29	376.77	-1290.9	48.534	316.52	-1119.2	42.571	256.24	-1079	38.143	364.29	-1029.1	53.445	303.81	-1122.3	1477.3	359.69	-1171.8	1210.9	338.22
121	0.5	-897.36	1182.3	350.67	-1046.4	1422.6	508.84	-1030	1429.4	193.8	-991.47	1731.5	352.58	-937.62	1014.8	457.1	-958.58	1016.6	212.4	-1169.8	1031.9	400.12	-1169	1043.1	310.81	-1007.6	924.62	534.79	-1044	930.47	150.89	-1028.3	1089.5	506.78	-1066.4	1113.8	187.88	-1188	1002.8	349.54	-924.82	686.26	523.61	-821.84	616.85	485.1	-897.91	598.35	500.88	-855.22	698.96	508.73	-819.26	540.76	484.37	-817.58	525.45	359.22	-831.08	356.92	494.95	-745.79	324.98	495.28	-805.14	285.42	489.7	-776.59	392.09	502.24	-703.83	115.94	486.12	-673.47	142.71	403.11	-748.11	73.16	425.96	-720.05	51.648	398.61	-736.16	44.432	460.91	-593.48	93.109	533.72	-541.48	126.47	439.34	-512.65	156.93	488.98	-1146.5	688.85	221.06	-1081.8	579.03	221.85	-1146.6	600.44	242.37	-1080.6	665.48	195.6	-1112.3	503.58	237.72	-1081.4	518.7	367.2	-1184.3	378.55	237.1	-1138.5	279.73	256.53	-1196.5	304.02	249.45	-1125.1	355.44	243.24	-1215.6	107.09	290.76	-1200.3	101.8	384.17	-1289.2	75.742	345.48	-1278.1	49.355	376.83	-1290.8	48.657	316.59	-1119.2	42.545	256.24	-1078.9	38.057	364.26	-1029	53.169	303.76	-1116.7	1476.4	359.72	-1166.3	1209.9	338.38
122	0.50417	-892.33	1181.3	350.65	-1041.1	1421.7	508.88	-1024.6	1428.3	193.84	-986.1	1730.6	352.77	-931.85	1013.7	457.05	-953.41	1015.9	212.4	-1163.9	1030.7	400.61	-1163.4	1042.2	311.31	-1001.9	923.19	534.64	-1039.4	929.92	150.85	-1022.6	1088.4	506.91	-1061.4	1113	188.18	-1182.4	1001.8	350.04	-920.49	684.49	523.36	-817.93	614.55	484.76	-894.11	596.46	500.48	-850.82	696.77	508.45	-815.07	539.47	484.02	-814.27	523.65	358.21	-822.52	355.76	494.78	-736.5	325.71	494.55	-794.9	284.75	489.52	-768.79	392.13	501.49	-689.39	117.22	485.47	-660.48	144.66	402.3	-733.31	73.242	425.76	-704.9	52.378	398.21	-720.3	44.787	460.65	-578.04	97.02	532.18	-527.77	131.64	437.36	-499.15	162.88	486.67	-1143	688.98	221.42	-1079	578.75	221.7	-1143.6	600.5	242.52	-1077.3	665.23	195.61	-1109.9	503.39	237.63	-1078.3	518.19	366.96	-1182.5	378.74	237.04	-1137.3	279.63	256.42	-1194.9	304.39	249.26	-1123.4	355.26	243.11	-1215.3	107.32	290.83	-1200	102.02	384.2	-1289.2	75.849	345.56	-1278	49.428	376.89	-1290.7	48.789	316.66	-1119.1	42.518	256.25	-1078.8	37.974	364.23	-1028.9	52.89	303.71	-1111	1475.4	359.77	-1160.8	1208.8	338.55
123	0.50833	-887.15	1180.2	350.65	-1035.7	1420.7	508.95	-1019.2	1427.2	193.89	-980.73	1729.6	352.96	-926.08	1012.6	457	-948.23	1015.1	212.39	-1157.9	1029.6	401.12	-1157.7	1041.3	311.83	-996.15	921.77	534.53	-1034.8	929.34	150.81	-1016.9	1087.2	507.04	-1056.4	1112.2	188.48	-1176.7	1000.9	350.55	-916.04	682.77	523.15	-813.88	612.32	484.43	-890.17	594.63	500.11	-846.3	694.65	508.19	-810.76	538.25	483.69	-810.92	521.91	357.23	-814.12	354.69	494.6	-727.44	326.43	493.8	-784.92	284.18	489.3	-761.12	392.18	500.73	-675.5	118.55	484.74	-648	146.63	401.41	-719.07	73.455	425.46	-690.36	53.228	397.7	-705.06	45.261	460.26	-563.23	100.83	530.54	-514.68	136.66	435.31	-486.25	168.61	484.31	-1139.5	689.06	221.76	-1076.1	578.44	221.56	-1140.5	600.51	242.65	-1074	664.94	195.62	-1107.3	503.17	237.54	-1075.1	517.66	366.72	-1180.5	378.91	236.98	-1135.9	279.51	256.33	-1193.2	304.74	249.09	-1121.6	355.06	242.99	-1215	107.55	290.9	-1199.6	102.24	384.24	-1289.1	75.966	345.64	-1278	49.512	376.95	-1290.7	48.931	316.72	-1119.1	42.492	256.25	-1078.7	37.892	364.2	-1028.7	52.608	303.66	-1105.3	1474.4	359.83	-1155.2	1207.8	338.75
